PathFileType	4	(X/Y/Z)	Run_400 01
DataRate	CameraRate	NumFrames	NumMarkers	Units	OrigDataRate	OrigDataStartFrame	OrigNumFrames
120	120	4	42	mm	120	595	128
Frame#	Time	LASI			RASI			LPSI			RTH1			RTH2			RTH3			LTH1			LTH2			LTH3			RTB1			RTB2			RTB3			LTB1			LTB2			LTB3			RCAL			RTOE			RMT5			LCAL			LTOE			LMT5			LACR			RACR			CLAV			C7			RUA1			RUA2			RUA3			RLEL			RMEL			LUA1			LUA2			LUA3			LLEL			LMEL			RFAsuperior			RFAradius			LFAsuperior			LFAradius			LFAulna			RFAulna			RPSI		
		X1	Y1	Z1	X2	Y2	Z2	X3	Y3	Z3	X4	Y4	Z4	X5	Y5	Z5	X6	Y6	Z6	X7	Y7	Z7	X8	Y8	Z8	X9	Y9	Z9	X10	Y10	Z10	X11	Y11	Z11	X12	Y12	Z12	X13	Y13	Z13	X14	Y14	Z14	X15	Y15	Z15	X16	Y16	Z16	X17	Y17	Z17	X18	Y18	Z18	X19	Y19	Z19	X20	Y20	Z20	X21	Y21	Z21	X22	Y22	Z22	X23	Y23	Z23	X24	Y24	Z24	X25	Y25	Z25	X26	Y26	Z26	X27	Y27	Z27	X28	Y28	Z28	X29	Y29	Z29	X30	Y30	Z30	X31	Y31	Z31	X32	Y32	Z32	X33	Y33	Z33	X34	Y34	Z34	X35	Y35	Z35	X36	Y36	Z36	X37	Y37	Z37	X38	Y38	Z38	X39	Y39	Z39	X40	Y40	Z40	X41	Y41	Z41	X42	Y42	Z42	

595	  4.958333	1114.486557	1039.030229	-445.884118	1117.203647	1014.533690	-217.691152	955.290282	1088.461144	-377.435680	1004.281075	875.491095	-157.686462	993.751801	720.892065	-200.408797	894.130826	668.601939	-213.250799	1116.865944	912.561618	-513.539709	1233.708622	876.056776	-494.059828	1250.246445	734.678966	-484.330994	805.908409	443.897197	-279.273815	732.903287	432.481460	-213.232648	672.061067	320.286587	-277.493687	1353.672155	532.623181	-438.258274	1277.262081	452.007698	-482.388069	1268.637935	350.343099	-419.092490	508.483150	326.217650	-281.608505	577.499710	136.039717	-341.287647	545.878703	115.480667	-240.266657	1115.904785	268.316348	-401.227866	1305.001923	186.077617	-369.556797	1282.527330	149.017335	-468.242101	1045.594920	1523.989824	-511.497770	1132.396676	1512.272109	-166.257945	1161.253286	1466.956654	-337.355509	1045.354045	1546.324162	-338.101637	1119.457397	1433.123474	-113.509998	1126.573115	1343.060257	-121.543792	1041.263580	1345.951306	-86.352898	1028.771018	1230.740015	-52.536777	993.408275	1223.957689	-116.167470	978.542248	1498.689159	-546.589603	919.433776	1473.896014	-494.806883	910.022564	1419.260036	-563.445873	788.481469	1379.055094	-559.381022	789.984686	1378.643967	-486.004241	1124.265648	1233.732301	-80.378385	1269.031133	1207.584572	-178.813568	842.249052	1320.562876	-582.690252	976.020096	1173.698337	-552.374773	918.680217	1143.149562	-568.767062	1258.891432	1140.894898	-169.714474	959.830827	1083.969392	-278.447510	
596	  4.966667	1113.421581	1041.691785	-445.158598	1116.424253	1018.584781	-216.460218	955.609813	1092.598921	-377.316932	1002.366676	879.958096	-157.767269	994.005404	724.012153	-200.622046	895.451501	670.891127	-214.340537	1113.476103	909.076532	-511.325137	1229.255596	873.111446	-496.868263	1244.495426	731.792901	-482.357656	801.378573	448.437687	-281.548806	730.464570	439.518994	-213.916320	661.116666	332.692916	-277.017858	1358.537171	531.313156	-436.996769	1291.322300	443.781794	-482.540721	1290.482612	341.919492	-419.045379	497.485305	347.344146	-276.130668	556.194428	154.990673	-340.004161	526.261716	134.344492	-238.606541	1145.621455	247.928726	-401.454886	1339.924038	180.704314	-367.323047	1320.434846	140.239851	-467.344219	1045.349250	1526.109591	-512.795578	1132.078888	1516.018151	-167.603291	1161.393745	1470.201474	-338.601046	1045.230924	1549.201248	-339.263581	1119.357094	1437.447808	-114.516357	1127.112922	1348.001606	-121.254067	1041.478493	1350.105781	-87.199732	1029.236429	1235.206762	-52.608230	992.566422	1228.397569	-116.001785	978.335080	1501.404528	-547.647332	919.643514	1476.460707	-495.215358	909.234005	1422.429935	-563.603362	787.495322	1382.661213	-558.410897	789.589148	1381.979925	-485.447005	1124.223552	1237.030879	-81.982377	1267.938029	1210.572239	-181.373150	841.429617	1324.873957	-582.151206	977.401680	1179.831655	-552.600483	920.641424	1148.067595	-568.458942	1258.529454	1143.987961	-171.020090	959.462129	1088.458722	-278.404367	
597	  4.975000	1112.352045	1043.719427	-444.456693	1115.345475	1022.400624	-214.939688	955.194653	1095.309084	-377.416257	1000.384649	884.028130	-158.386065	996.496546	725.799191	-201.757172	899.081938	671.213227	-215.278106	1109.307646	903.794642	-509.334237	1224.713176	868.844517	-499.570735	1238.740564	728.203743	-481.815398	798.207073	452.141184	-283.394402	728.792971	446.630192	-214.595765	651.197133	345.782615	-276.316059	1361.218689	528.625008	-435.614023	1303.833879	435.048584	-482.346599	1310.422480	333.815916	-418.679899	487.098236	369.283199	-271.758572	537.282984	175.638871	-338.355488	508.218551	154.992291	-236.480066	1174.061879	229.543217	-401.739295	1372.024496	176.132339	-365.096203	1355.335427	133.261294	-466.050209	1045.269132	1527.481661	-514.096832	1131.821799	1518.846620	-168.825864	1161.689526	1472.968713	-339.844720	1045.244120	1551.450814	-340.519077	1118.830230	1440.703754	-115.412232	1127.023845	1351.927991	-121.133503	1041.182758	1353.254373	-88.040273	1028.945913	1238.902753	-52.963723	990.983344	1232.068049	-116.119725	978.210078	1502.834367	-549.089870	919.741871	1477.836492	-496.013293	908.994046	1424.085710	-564.131054	787.129907	1384.710907	-558.088372	789.550290	1383.821071	-485.311076	1123.760120	1238.997127	-83.074287	1266.443009	1210.777442	-183.240877	841.413922	1327.669402	-582.050287	979.491885	1184.546981	-552.837703	923.363127	1151.553876	-568.291614	1257.078647	1144.506184	-170.621103	958.562436	1091.906184	-278.557487	
598	  4.983333	1111.388268	1045.111651	-443.563713	1114.175787	1025.772045	-213.318662	954.122336	1096.481748	-377.583291	999.152426	887.003599	-159.402275	1001.075954	726.262545	-203.995907	904.792339	669.946814	-216.231730	1104.595972	898.528154	-508.245260	1221.186206	863.772680	-501.569002	1233.206989	724.074059	-482.449894	796.520236	455.328473	-284.445741	727.686780	454.357173	-215.003568	642.785944	359.368734	-275.219466	1361.809060	524.392271	-434.666085	1314.097466	426.005089	-481.774617	1327.936517	326.105694	-418.017199	478.669090	392.099203	-268.745831	521.220289	197.096411	-335.927727	491.704688	177.211398	-233.787172	1200.215023	213.138149	-402.187861	1400.753515	172.355976	-363.122360	1386.861433	127.563954	-463.909601	1045.471015	1528.154088	-515.441418	1131.855599	1520.755320	-170.028771	1162.090313	1475.119637	-341.062974	1045.518477	1553.113728	-341.870147	1118.154761	1442.981371	-116.308916	1126.426845	1354.746981	-121.218980	1040.442172	1355.624157	-89.009041	1027.875466	1241.899871	-53.601427	988.879377	1235.113716	-116.589686	978.234769	1503.148224	-550.824077	919.808682	1478.137081	-497.121304	909.306948	1424.342599	-565.000062	787.445665	1385.179275	-558.419093	789.950241	1384.218579	-485.620135	1122.884218	1239.775631	-83.557606	1264.543558	1208.391343	-184.329413	842.258059	1328.909064	-582.413897	982.313524	1187.789463	-553.048583	926.869424	1153.581063	-568.256200	1254.444719	1142.592351	-168.552234	957.367127	1094.105337	-278.740232	
